<svg width="171" height="49" viewBox="0 0 171 49" fill="none" xmlns="http://www.w3.org/2000/svg">
<path d="M0.511364 48V1.45454H6.14773V43H27.7841V48H0.511364ZM73.9716 24.7273C73.9716 29.6364 73.0852 33.8788 71.3125 37.4545C69.5398 41.0303 67.108 43.7879 64.017 45.7273C60.9261 47.6667 57.3958 48.6364 53.4261 48.6364C49.4564 48.6364 45.9261 47.6667 42.8352 45.7273C39.7443 43.7879 37.3125 41.0303 35.5398 37.4545C33.767 33.8788 32.8807 29.6364 32.8807 24.7273C32.8807 19.8182 33.767 15.5758 35.5398 12C37.3125 8.42424 39.7443 5.66667 42.8352 3.72727C45.9261 1.78788 49.4564 0.81818 53.4261 0.81818C57.3958 0.81818 60.9261 1.78788 64.017 3.72727C67.108 5.66667 69.5398 8.42424 71.3125 12C73.0852 15.5758 73.9716 19.8182 73.9716 24.7273ZM68.517 24.7273C68.517 20.697 67.8428 17.2955 66.4943 14.5227C65.161 11.75 63.3504 9.65151 61.0625 8.22727C58.7898 6.80303 56.2443 6.09091 53.4261 6.09091C50.608 6.09091 48.0549 6.80303 45.767 8.22727C43.4943 9.65151 41.6837 11.75 40.3352 14.5227C39.0019 17.2955 38.3352 20.697 38.3352 24.7273C38.3352 28.7576 39.0019 32.1591 40.3352 34.9318C41.6837 37.7045 43.4943 39.803 45.767 41.2273C48.0549 42.6515 50.608 43.3636 53.4261 43.3636C56.2443 43.3636 58.7898 42.6515 61.0625 41.2273C63.3504 39.803 65.161 37.7045 66.4943 34.9318C67.8428 32.1591 68.517 28.7576 68.517 24.7273ZM115.267 16C114.767 14.4697 114.108 13.0985 113.29 11.8864C112.487 10.6591 111.525 9.61363 110.403 8.75C109.297 7.88636 108.04 7.22727 106.631 6.77272C105.222 6.31818 103.676 6.09091 101.994 6.09091C99.2367 6.09091 96.7292 6.80303 94.4716 8.22727C92.214 9.65151 90.4186 11.75 89.0852 14.5227C87.7519 17.2955 87.0852 20.697 87.0852 24.7273C87.0852 28.7576 87.7595 32.1591 89.108 34.9318C90.4564 37.7045 92.2822 39.803 94.5852 41.2273C96.8883 42.6515 99.4792 43.3636 102.358 43.3636C105.025 43.3636 107.373 42.7955 109.403 41.6591C111.449 40.5076 113.04 38.8864 114.176 36.7955C115.328 34.6894 115.903 32.2121 115.903 29.3636L117.631 29.7273H103.631V24.7273H121.358V29.7273C121.358 33.5606 120.54 36.8939 118.903 39.7273C117.282 42.5606 115.04 44.7576 112.176 46.3182C109.328 47.8636 106.055 48.6364 102.358 48.6364C98.2367 48.6364 94.6155 47.6667 91.4943 45.7273C88.3883 43.7879 85.964 41.0303 84.2216 37.4545C82.4943 33.8788 81.6307 29.6364 81.6307 24.7273C81.6307 21.0455 82.1231 17.7348 83.108 14.7955C84.108 11.8409 85.517 9.32576 87.3352 7.25C89.1534 5.17424 91.3049 3.58333 93.7898 2.47727C96.2746 1.37121 99.0095 0.81818 101.994 0.81818C104.449 0.81818 106.737 1.18939 108.858 1.93182C110.994 2.65909 112.896 3.69697 114.562 5.04545C116.244 6.37879 117.646 7.97727 118.767 9.84091C119.888 11.6894 120.661 13.7424 121.085 16H115.267ZM170.284 24.7273C170.284 29.6364 169.398 33.8788 167.625 37.4545C165.852 41.0303 163.42 43.7879 160.33 45.7273C157.239 47.6667 153.708 48.6364 149.739 48.6364C145.769 48.6364 142.239 47.6667 139.148 45.7273C136.057 43.7879 133.625 41.0303 131.852 37.4545C130.08 33.8788 129.193 29.6364 129.193 24.7273C129.193 19.8182 130.08 15.5758 131.852 12C133.625 8.42424 136.057 5.66667 139.148 3.72727C142.239 1.78788 145.769 0.81818 149.739 0.81818C153.708 0.81818 157.239 1.78788 160.33 3.72727C163.42 5.66667 165.852 8.42424 167.625 12C169.398 15.5758 170.284 19.8182 170.284 24.7273ZM164.83 24.7273C164.83 20.697 164.155 17.2955 162.807 14.5227C161.473 11.75 159.663 9.65151 157.375 8.22727C155.102 6.80303 152.557 6.09091 149.739 6.09091C146.92 6.09091 144.367 6.80303 142.08 8.22727C139.807 9.65151 137.996 11.75 136.648 14.5227C135.314 17.2955 134.648 20.697 134.648 24.7273C134.648 28.7576 135.314 32.1591 136.648 34.9318C137.996 37.7045 139.807 39.803 142.08 41.2273C144.367 42.6515 146.92 43.3636 149.739 43.3636C152.557 43.3636 155.102 42.6515 157.375 41.2273C159.663 39.803 161.473 37.7045 162.807 34.9318C164.155 32.1591 164.83 28.7576 164.83 24.7273Z" fill="white"/>
</svg>
